<svg width="100" height="100" viewBox="0 0 100 100" fill="none" xmlns="http://www.w3.org/2000/svg">
<rect width="100" height="100" rx="16" fill="#F2785C"/>
<path d="M74.875 72.8438C74.875 73.3825 74.661 73.8992 74.28 74.2801C73.8991 74.661 73.3825 74.875 72.8437 74.875H36.2812C35.7425 74.875 35.2259 74.661 34.8449 74.2801C34.464 73.8992 34.25 73.3825 34.25 72.8438C34.25 72.305 34.464 71.7884 34.8449 71.4075C35.2259 71.0265 35.7425 70.8125 36.2812 70.8125H72.8437C73.3825 70.8125 73.8991 71.0265 74.28 71.4075C74.661 71.7884 74.875 72.305 74.875 72.8438ZM80.9687 52.5313V58.625C80.9687 59.1637 80.7547 59.6804 80.3738 60.0613C79.9929 60.4423 79.4762 60.6563 78.9375 60.6563H34.1992C32.0138 60.6638 29.8848 59.9627 28.1315 58.658C26.3782 57.3534 25.0951 55.5155 24.4746 53.4199L20.8945 41.5117C20.7167 40.9023 20.6815 40.2602 20.7916 39.635C20.9016 39.0098 21.1541 38.4183 21.5293 37.9063C21.913 37.4012 22.4083 36.9917 22.9765 36.7098C23.5447 36.4279 24.1704 36.2813 24.8047 36.2813H29.1719C29.4684 36.2819 29.7611 36.3482 30.0289 36.4756C30.2968 36.6029 30.533 36.788 30.7207 37.0176L35.1894 42.375H39.5566L37.2715 35.5449C37.0658 34.9332 37.0087 34.2813 37.1051 33.6432C37.2015 33.0051 37.4486 32.3991 37.8258 31.8755C38.203 31.3518 38.6996 30.9256 39.2743 30.632C39.8491 30.3385 40.4855 30.1861 41.1308 30.1875H45.4219C45.7039 30.186 45.9832 30.2441 46.2413 30.3578C46.4994 30.4716 46.7307 30.6385 46.9199 30.8477L57.4824 42.375H70.8125C73.5061 42.375 76.0894 43.4451 77.994 45.3497C79.8987 47.2544 80.9687 49.8377 80.9687 52.5313ZM76.9062 52.5313C76.8996 50.9172 76.2554 49.3711 75.114 48.2297C73.9727 47.0884 72.4266 46.4442 70.8125 46.4375H56.5937C56.3117 46.439 56.0324 46.381 55.7743 46.2672C55.5162 46.1535 55.2849 45.9866 55.0957 45.7774L44.5332 34.25H41.1308L44.3047 43.7715C44.4041 44.0769 44.4306 44.4013 44.3821 44.7187C44.3336 45.0362 44.2114 45.3379 44.0254 45.5996C43.8378 45.8616 43.5899 46.0745 43.3026 46.2203C43.0153 46.3662 42.6971 46.4407 42.375 46.4375H34.25C33.9534 46.4369 33.6607 46.3706 33.3929 46.2432C33.1251 46.1159 32.8888 45.9308 32.7012 45.7012L28.2324 40.3438H24.7793L28.3594 52.252C28.7326 53.5097 29.5034 54.6126 30.5563 55.3953C31.6091 56.1781 32.8873 56.5986 34.1992 56.5938H76.9062V52.5313Z" fill="white"/>
</svg>
