<svg width="100" height="100" viewBox="0 0 100 100" fill="none" xmlns="http://www.w3.org/2000/svg">
<rect width="100" height="100" rx="16" fill="#F2785C"/>
<path d="M35.4167 67.7083C33.4828 67.7083 31.6281 66.9401 30.2607 65.5727C28.8932 64.2052 28.125 62.3505 28.125 60.4167C28.125 58.4828 28.8932 56.6281 30.2607 55.2607C31.6281 53.8932 33.4828 53.125 35.4167 53.125C37.3505 53.125 39.2052 53.8932 40.5727 55.2607C41.9401 56.6281 42.7083 58.4828 42.7083 60.4167C42.7083 62.3505 41.9401 64.2052 40.5727 65.5727C39.2052 66.9401 37.3505 67.7083 35.4167 67.7083ZM35.4167 50C32.654 50 30.0045 51.0975 28.051 53.051C26.0975 55.0045 25 57.654 25 60.4167C25 63.1793 26.0975 65.8289 28.051 67.7824C30.0045 69.7359 32.654 70.8333 35.4167 70.8333C38.1793 70.8333 40.8289 69.7359 42.7824 67.7824C44.7359 65.8289 45.8333 63.1793 45.8333 60.4167C45.8333 57.654 44.7359 55.0045 42.7824 53.051C40.8289 51.0975 38.1793 50 35.4167 50ZM55.8333 45.8333H64.5833V42.0833H57.9167L53.875 35.2708C53.2708 34.2292 52.0833 33.5417 50.8333 33.5417C49.8542 33.5417 48.9583 33.9375 48.3333 34.5833L40.625 42.2708C39.9792 42.9167 39.5833 43.75 39.5833 44.7917C39.5833 46.1042 40.2708 47.2083 41.3542 47.8542L48.3333 52.0833V62.5H52.0833V48.9583L47.3958 45.5208L52.2292 40.625L55.8333 45.8333ZM64.5833 67.7083C62.6495 67.7083 60.7948 66.9401 59.4273 65.5727C58.0599 64.2052 57.2917 62.3505 57.2917 60.4167C57.2917 58.4828 58.0599 56.6281 59.4273 55.2607C60.7948 53.8932 62.6495 53.125 64.5833 53.125C66.5172 53.125 68.3719 53.8932 69.7393 55.2607C71.1068 56.6281 71.875 58.4828 71.875 60.4167C71.875 62.3505 71.1068 64.2052 69.7393 65.5727C68.3719 66.9401 66.5172 67.7083 64.5833 67.7083ZM64.5833 50C61.8207 50 59.1711 51.0975 57.2176 53.051C55.2641 55.0045 54.1667 57.654 54.1667 60.4167C54.1667 63.1793 55.2641 65.8289 57.2176 67.7824C59.1711 69.7359 61.8207 70.8333 64.5833 70.8333C65.9513 70.8333 67.3058 70.5639 68.5696 70.0404C69.8334 69.5169 70.9818 68.7496 71.949 67.7824C72.9163 66.8151 73.6836 65.6668 74.2071 64.403C74.7306 63.1391 75 61.7846 75 60.4167C75 59.0487 74.7306 57.6942 74.2071 56.4304C73.6836 55.1666 72.9163 54.0182 71.949 53.051C70.9818 52.0837 69.8334 51.3164 68.5696 50.7929C67.3058 50.2694 65.9513 50 64.5833 50ZM58.3333 35C60.4167 35 62.0833 33.3333 62.0833 31.25C62.0833 29.1667 60.4167 27.5 58.3333 27.5C56.25 27.5 54.5833 29.1667 54.5833 31.25C54.5833 33.3333 56.25 35 58.3333 35Z" fill="white"/>
</svg>
