<svg width="100" height="100" viewBox="0 0 100 100" fill="none" xmlns="http://www.w3.org/2000/svg">
<rect width="100" height="100" rx="16" fill="#F2785C"/>
<path d="M37.6042 52.9167C38.5711 52.9167 39.4984 52.5326 40.1822 51.8488C40.8659 51.1651 41.25 50.2378 41.25 49.2708C41.25 48.3039 40.8659 47.3766 40.1822 46.6928C39.4984 46.0091 38.5711 45.625 37.6042 45.625C36.6372 45.625 35.7099 46.0091 35.0262 46.6928C34.3424 47.3766 33.9583 48.3039 33.9583 49.2708C33.9583 50.2378 34.3424 51.1651 35.0262 51.8488C35.7099 52.5326 36.6372 52.9167 37.6042 52.9167ZM53.6458 49.2708C53.6458 50.2378 53.2617 51.1651 52.578 51.8488C51.8943 52.5326 50.9669 52.9167 50 52.9167C49.0331 52.9167 48.1057 52.5326 47.422 51.8488C46.7383 51.1651 46.3542 50.2378 46.3542 49.2708C46.3542 48.3039 46.7383 47.3766 47.422 46.6928C48.1057 46.0091 49.0331 45.625 50 45.625C50.9669 45.625 51.8943 46.0091 52.578 46.6928C53.2617 47.3766 53.6458 48.3039 53.6458 49.2708ZM62.3958 52.9167C63.3628 52.9167 64.2901 52.5326 64.9738 51.8488C65.6576 51.1651 66.0417 50.2378 66.0417 49.2708C66.0417 48.3039 65.6576 47.3766 64.9738 46.6928C64.2901 46.0091 63.3628 45.625 62.3958 45.625C61.4289 45.625 60.5016 46.0091 59.8178 46.6928C59.1341 47.3766 58.75 48.3039 58.75 49.2708C58.75 50.2378 59.1341 51.1651 59.8178 51.8488C60.5016 52.5326 61.4289 52.9167 62.3958 52.9167ZM41.25 60.9375C41.25 61.9044 40.8659 62.8318 40.1822 63.5155C39.4984 64.1992 38.5711 64.5833 37.6042 64.5833C36.6372 64.5833 35.7099 64.1992 35.0262 63.5155C34.3424 62.8318 33.9583 61.9044 33.9583 60.9375C33.9583 59.9706 34.3424 59.0432 35.0262 58.3595C35.7099 57.6758 36.6372 57.2917 37.6042 57.2917C38.5711 57.2917 39.4984 57.6758 40.1822 58.3595C40.8659 59.0432 41.25 59.9706 41.25 60.9375ZM50 64.5833C50.9669 64.5833 51.8943 64.1992 52.578 63.5155C53.2617 62.8318 53.6458 61.9044 53.6458 60.9375C53.6458 59.9706 53.2617 59.0432 52.578 58.3595C51.8943 57.6758 50.9669 57.2917 50 57.2917C49.0331 57.2917 48.1057 57.6758 47.422 58.3595C46.7383 59.0432 46.3542 59.9706 46.3542 60.9375C46.3542 61.9044 46.7383 62.8318 47.422 63.5155C48.1057 64.1992 49.0331 64.5833 50 64.5833ZM23.75 32.8646C23.75 30.4472 24.7103 28.1289 26.4196 26.4196C28.1289 24.7103 30.4472 23.75 32.8646 23.75H67.1354C69.5528 23.75 71.8711 24.7103 73.5804 26.4196C75.2897 28.1289 76.25 30.4472 76.25 32.8646V67.1354C76.25 69.5528 75.2897 71.8711 73.5804 73.5804C71.8711 75.2897 69.5528 76.25 67.1354 76.25H32.8646C30.4472 76.25 28.1289 75.2897 26.4196 73.5804C24.7103 71.8711 23.75 69.5528 23.75 67.1354V32.8646ZM32.8646 27.3958C31.4142 27.3958 30.0232 27.972 28.9976 28.9976C27.972 30.0232 27.3958 31.4142 27.3958 32.8646V35.4167H72.6042V32.8646C72.6042 31.4142 72.028 30.0232 71.0024 28.9976C69.9768 27.972 68.5858 27.3958 67.1354 27.3958H32.8646ZM27.3958 67.1354C27.3958 68.5858 27.972 69.9768 28.9976 71.0024C30.0232 72.028 31.4142 72.6042 32.8646 72.6042H67.1354C68.5858 72.6042 69.9768 72.028 71.0024 71.0024C72.028 69.9768 72.6042 68.5858 72.6042 67.1354V39.0625H27.3958V67.1354Z" fill="white"/>
</svg>
